<mxfile host="app.diagrams.net" modified="2024-01-11T17:26:14.469Z" agent="Mozilla/5.0 (Windows NT 10.0; Win64; x64) AppleWebKit/537.36 (KHTML, like Gecko) Chrome/120.0.0.0 Safari/537.36 Edg/120.0.0.0" version="22.1.18" etag="V3YNpo-H8LmghBeT5gmA" type="github">
  <diagram name="第 1 页" id="69bhKUUr8W3uyhAHb6Bg">
    <mxGraphModel>
      <root>
        <mxCell id="0" />
        <mxCell id="1" parent="0" />
      </root>
    </mxGraphModel>
  </diagram>
</mxfile>
